<svg xmlns="http://www.w3.org/2000/svg" width="55" height="67" viewBox="0 0 55 67">
    <g fill="none" fill-rule="evenodd">
        <path fill="#EFB636" d="M40.78 66.88l-11.41-6.996a1.663 1.663 0 0 0-1.74 0l-11.41 6.997a.802.802 0 0 1-1.22-.689V33h27v33.192a.802.802 0 0 1-1.22.689"/>
        <path fill="#FFCE56" d="M55 26c0 2.798-2.77 5.13-3.602 7.655-.862 2.617-.041 6.104-1.649 8.282-1.624 2.2-5.252 2.5-7.483 4.1-2.21 1.586-3.612 4.903-6.266 5.753-2.56.82-5.662-1.025-8.5-1.025S21.561 52.61 19 51.79c-2.654-.85-4.056-4.167-6.266-5.753-2.231-1.6-5.86-1.9-7.483-4.1-1.608-2.179-.787-5.665-1.649-8.282C2.77 31.131 0 28.798 0 26s2.77-5.13 3.602-7.655c.862-2.617.041-6.104 1.649-8.282 1.624-2.2 5.252-2.5 7.483-4.1C14.944 4.377 16.346 1.06 19 .21c2.561-.82 5.662 1.025 8.5 1.025S33.44-.61 36 .21c2.654.85 4.056 4.167 6.266 5.753 2.231 1.6 5.86 1.9 7.483 4.1 1.608 2.179.787 5.665 1.649 8.282C52.23 20.869 55 23.202 55 26"/>
        <path fill="#FFF" d="M41 25.151c0 7.732-6.268 14-14 14s-14-6.268-14-14 6.268-14 14-14 14 6.268 14 14"/>
    </g>
</svg>
