<svg xmlns="http://www.w3.org/2000/svg" width="63" height="63" viewBox="0 0 63 63">
    <defs>
        <linearGradient id="a" x1="50%" x2="50%" y1="0%" y2="100%">
            <stop offset="0%" stop-color="#2740A5"/>
            <stop offset="100%" stop-color="#111E6C"/>
        </linearGradient>
    </defs>
    <g fill="none" fill-rule="evenodd" stroke-linecap="round" stroke-width="3.84">
        <path stroke="#6C759F" d="M36.149 35.298c-3.679 2.477-14.816 3.075-19.105 4.563-2.03.705-4.227 2.15-5.047 5.419-.478 1.9-.811 3.83-1.115 5.762"/>
        <path stroke="url(#a)" d="M56.377 39a29.014 29.014 0 0 0 1.745-9.939C58.122 13.011 45.111 0 29.061 0S0 13.01 0 29.06s13.011 29.06 29.06 29.06c7.19 0 13.771-2.61 18.845-6.936l1.656-1.53" transform="translate(2 2)"/>
        <path stroke="#EE424E" d="M51.561 51.655s-.688-3.517-1.305-6.117c-.776-3.28-2.948-4.77-4.974-5.487-1.683-.594-10.294-1.8-11.301-3.389"/>
        <path stroke="#6C759F" d="M41.56 26.042c0-5.865-4.754-10.62-10.62-10.62-5.865 0-10.62 4.755-10.62 10.62 0 5.866 4.755 10.62 10.62 10.62 5.866 0 10.62-4.754 10.62-10.62z"/>
    </g>
</svg>
